<svg width="20" height="20" viewBox="0 0 20 20" fill="none" xmlns="http://www.w3.org/2000/svg">
  <path d="M15.6629 9.43801L5.60045 1.57863C5.57415 1.55793 5.54256 1.54507 5.50928 1.54152C5.476 1.53797 5.4424 1.54387 5.41233 1.55856C5.38226 1.57324 5.35694 1.59611 5.33929 1.62454C5.32163 1.65296 5.31234 1.68579 5.3125 1.71926V3.4447C5.3125 3.55408 5.36384 3.65899 5.44866 3.72595L13.4844 10.0005L5.44866 16.2751C5.36161 16.342 5.3125 16.4469 5.3125 16.5563V18.2818C5.3125 18.4313 5.48438 18.5139 5.60045 18.4224L15.6629 10.563C15.7485 10.4963 15.8177 10.411 15.8652 10.3135C15.9128 10.216 15.9376 10.109 15.9376 10.0005C15.9376 9.89204 15.9128 9.785 15.8652 9.68753C15.8177 9.59006 15.7485 9.50472 15.6629 9.43801Z" fill="#595959" />
</svg>
