<svg width="20" height="20" viewBox="0 0 20 20" fill="none" xmlns="http://www.w3.org/2000/svg">
  <path d="M18.0353 9.15145H4.97499L12.792 2.36574C12.917 2.25636 12.8411 2.05324 12.6759 2.05324H10.7004C10.6134 2.05324 10.5308 2.08449 10.4661 2.14029L2.03079 9.45949C1.95353 9.52646 1.89157 9.60925 1.84911 9.70226C1.80664 9.79526 1.78467 9.89631 1.78467 9.99855C1.78467 10.1008 1.80664 10.2018 1.84911 10.2948C1.89157 10.3879 1.95353 10.4706 2.03079 10.5376L10.5152 17.9015C10.5486 17.9305 10.5888 17.9461 10.6312 17.9461H12.6736C12.8388 17.9461 12.9147 17.7407 12.7897 17.6336L4.97499 10.8479H18.0353C18.1335 10.8479 18.2138 10.7675 18.2138 10.6693V9.33002C18.2138 9.23181 18.1335 9.15145 18.0353 9.15145Z" fill="#595959" />
</svg>
