<svg width="20" height="20" viewBox="0 0 20 20" fill="none" xmlns="http://www.w3.org/2000/svg">
  <path d="M11.1559 9.99898L17.0153 3.01461C17.1135 2.89854 17.0309 2.7222 16.8791 2.7222H15.0979C14.993 2.7222 14.8925 2.76907 14.8233 2.84943L9.99073 8.61059L5.15814 2.84943C5.09117 2.76907 4.99073 2.7222 4.88358 2.7222H3.10233C2.95055 2.7222 2.86796 2.89854 2.96617 3.01461L8.82555 9.99898L2.96617 16.9834C2.94417 17.0092 2.93006 17.0409 2.92551 17.0745C2.92095 17.1082 2.92615 17.1424 2.94049 17.1732C2.95483 17.204 2.9777 17.23 3.00638 17.2482C3.03507 17.2664 3.06837 17.276 3.10233 17.2758H4.88358C4.9885 17.2758 5.08894 17.2289 5.15814 17.1485L9.99073 11.3874L14.8233 17.1485C14.8903 17.2289 14.9907 17.2758 15.0979 17.2758H16.8791C17.0309 17.2758 17.1135 17.0994 17.0153 16.9834L11.1559 9.99898Z" fill="#595959" />
</svg>
