<svg width="28" height="28" viewBox="0 0 28 28" fill="none" xmlns="http://www.w3.org/2000/svg">
  <path d="M0 4C0 1.79086 1.79086 0 4 0H24C26.2091 0 28 1.79086 28 4V24C28 26.2091 26.2091 28 24 28H4C1.79086 28 0 26.2091 0 24V4Z" fill="black" fill-opacity="0.04" />
  <path d="M20.5717 10.1835H14.161L12.0664 8.17997C12.0397 8.15502 12.0046 8.141 11.9681 8.14069H7.42885C7.11278 8.14069 6.85742 8.39604 6.85742 8.71211V19.2835C6.85742 19.5996 7.11278 19.855 7.42885 19.855H20.5717C20.8878 19.855 21.1431 19.5996 21.1431 19.2835V10.755C21.1431 10.4389 20.8878 10.1835 20.5717 10.1835ZM19.8574 18.5693H8.14314V9.4264H11.5092L13.6449 11.4693H19.8574V18.5693Z" fill="#767676" />
</svg>
